<svg width="74" height="74" viewBox="0 0 74 74" fill="none" xmlns="http://www.w3.org/2000/svg">
<path d="M49.396 37.0557H60.1252C60.7637 37.0557 61.2814 36.538 61.2814 35.8994V30.4314C61.2814 29.7928 60.7637 29.2751 60.1252 29.2751H49.396C48.7575 29.2751 48.2398 29.7928 48.2398 30.4314V35.8994C48.2398 36.538 48.7575 37.0557 49.396 37.0557ZM50.5523 31.5876H58.9689V34.7432H50.5523V31.5876ZM31.1643 28.4503H41.294C41.9326 28.4503 42.4503 27.9326 42.4503 27.294V17.1643C42.4503 16.5257 41.9326 16.008 41.294 16.008H31.1643C30.5257 16.008 30.008 16.5257 30.008 17.1643V27.294C30.008 27.9326 30.5257 28.4503 31.1643 28.4503ZM32.3205 18.3205H40.1378V26.1378H32.3205V18.3205ZM42.45 31.7666C42.45 32.4051 41.9323 32.9228 41.2938 32.9228H31.1643C30.5257 32.9228 30.008 32.4051 30.008 31.7666C30.008 31.128 30.5257 30.6103 31.1643 30.6103H41.2938C41.9323 30.6103 42.45 31.128 42.45 31.7666ZM67.2686 38.7591H64.8243V24.0464C64.8243 23.4079 64.3066 22.8902 63.6681 22.8902H58.5444V9.43431H58.8614C59.4999 9.43431 60.0176 8.9166 60.0176 8.27806C60.0176 7.63953 59.4999 7.12181 58.8614 7.12181H50.6597C50.0211 7.12181 49.5034 7.63953 49.5034 8.27806C49.5034 8.9166 50.0211 9.43431 50.6597 9.43431H50.9766V22.8902H47.0094V12.6052C47.0094 11.9666 46.4917 11.4489 45.8531 11.4489H43.0443V8.27806C43.0443 7.63953 42.5266 7.12181 41.8881 7.12181H30.5698C29.9313 7.12181 29.4136 7.63953 29.4136 8.27806V11.4488H26.6048C25.9662 11.4488 25.4485 11.9665 25.4485 12.605V20.4459L16.7651 16.6564C16.4072 16.5003 15.9954 16.5351 15.6692 16.7488C15.3429 16.9625 15.1463 17.3262 15.1463 17.7161V22.8902H8.78984C8.1513 22.8902 7.63359 23.4079 7.63359 24.0464V38.7591H5.18942C4.55088 38.7591 4.03317 39.2768 4.03317 39.9154V44.116C4.03317 44.5944 4.32773 45.0233 4.77404 45.1951L9.35582 46.9587C9.9961 49.4067 10.9666 51.7481 12.2476 53.9345L10.2535 58.4239C10.0594 58.861 10.1544 59.3725 10.4926 59.7108L16.4334 65.6516C16.7717 65.9898 17.2832 66.0846 17.7203 65.8907L22.2114 63.896C24.3985 65.177 26.7393 66.1475 29.1852 66.7872L30.9492 71.3701C31.1209 71.8165 31.5499 72.111 32.0283 72.111H40.4298C40.9081 72.111 41.337 71.8165 41.5088 71.3701L43.2724 66.7885C45.7202 66.1485 48.0614 65.1778 50.2482 63.8966L54.7378 65.8907C55.1748 66.0848 55.6862 65.9898 56.0247 65.6515L61.9653 59.7108C62.3035 59.3725 62.3985 58.861 62.2044 58.4239L60.2097 53.9327C61.4907 51.7458 62.4611 49.4052 63.1009 46.959L67.6839 45.195C68.1302 45.0233 68.4247 44.5943 68.4247 44.1159V39.9154C68.4249 39.2768 67.9072 38.7591 67.2686 38.7591ZM53.2893 15.4967H56.2319V16.8281H53.2893V15.4967ZM56.2319 9.43431V13.1842H53.2893V9.43431H56.2319ZM53.2893 19.1406H56.2319V22.8902H53.2893V19.1406ZM62.5118 25.2027V38.7591H47.0094V25.2027H62.5118ZM47.7069 41.0716C47.125 46.8916 42.1998 51.4511 36.2291 51.4511C30.2585 51.4511 25.3333 46.8916 24.7514 41.0716H47.7069ZM31.7262 9.43431H40.732V11.4488H31.7262V9.43431ZM44.6969 13.7614V38.7591H27.7613V13.7614H44.6969ZM25.4488 22.9691V38.7591H17.4591V19.4823L25.4488 22.9691ZM9.94623 25.2027H15.1465V38.7591H9.94623V25.2027ZM66.1124 43.322L61.7095 45.0168C61.3537 45.1536 61.0883 45.4573 61.0002 45.828C60.3764 48.4494 59.3415 50.9453 57.9247 53.2465C57.7248 53.5711 57.6979 53.9735 57.8526 54.322L59.7689 58.6369L54.9511 63.4549L50.6376 61.5391C50.2894 61.3845 49.8869 61.4114 49.562 61.6114C47.2612 63.0285 44.7647 64.0634 42.1417 64.6875C41.7709 64.7756 41.4672 65.041 41.3303 65.3968L39.636 69.7984H32.8223L31.1276 65.3955C30.9907 65.0397 30.687 64.7743 30.3163 64.6862C27.6952 64.0624 25.1993 63.0275 22.8978 61.6107C22.5729 61.4106 22.1705 61.3838 21.8224 61.5386L17.5074 63.4549L12.6893 58.6369L14.6052 54.3236C14.7598 53.9751 14.733 53.5727 14.5329 53.248C13.1162 50.9477 12.0812 48.4512 11.4569 45.8276C11.3687 45.4568 11.1032 45.1532 10.7475 45.0163L6.34582 43.322V41.0715H22.4297C23.0192 48.1685 28.9827 53.7635 36.2292 53.7635C43.4759 53.7635 49.4394 48.1684 50.0289 41.0715H66.1127V43.322H66.1124ZM72.4939 7.11892L68.8644 2.5091C68.5542 2.11496 68.0884 1.88892 67.5867 1.88892C67.0851 1.88892 66.6194 2.11496 66.3091 2.5091L62.6795 7.11921C62.2908 7.61308 62.2197 8.27084 62.4942 8.83567C62.7684 9.40035 63.329 9.75113 63.9576 9.75113H64.3083V17.3509C64.3083 17.9894 64.826 18.5071 65.4646 18.5071H69.709C70.3476 18.5071 70.8653 17.9894 70.8653 17.3509V9.75127H71.2162C71.8446 9.75127 72.4054 9.40035 72.6796 8.83552C72.9538 8.27069 72.8827 7.61293 72.4939 7.11892ZM69.709 7.43877C69.0705 7.43877 68.5528 7.95648 68.5528 8.59502V16.1948H66.6208V8.59488C66.6208 8.28818 66.499 7.99406 66.2821 7.77726C66.0653 7.56047 65.7711 7.43863 65.4644 7.43863H65.3712L67.5867 4.6246L69.8024 7.43877H69.709ZM8.53518 18.5073C9.17371 18.5073 9.69143 17.9896 9.69143 17.351V9.75127H10.0423C10.6709 9.75127 11.2317 9.40021 11.5059 8.83523C11.78 8.2704 11.7088 7.61264 11.32 7.11892L7.69053 2.5091C7.38037 2.11496 6.91455 1.88892 6.41288 1.88892C5.91121 1.88892 5.44553 2.11496 5.13522 2.5091L1.50561 7.11936C1.11696 7.61322 1.04586 8.27098 1.32032 8.83581C1.5945 9.40049 2.15513 9.75127 2.7837 9.75127H3.13462V17.351C3.13462 17.9896 3.65233 18.5073 4.29087 18.5073H8.53518ZM4.19736 7.43863L6.41288 4.6246L8.62854 7.43877H8.53518C7.89664 7.43877 7.37893 7.95648 7.37893 8.59502V16.1948H5.44712V8.59488C5.44712 8.28818 5.32528 7.99406 5.10834 7.77726C4.89154 7.56047 4.59742 7.43863 4.29073 7.43863H4.19736Z" fill="#6C126C"/>
</svg>
