<svg width="74" height="74" viewBox="0 0 74 74" fill="none" xmlns="http://www.w3.org/2000/svg">
<path d="M37.0018 68.7307C36.7063 68.7303 36.415 68.66 36.1517 68.5257C35.953 68.4256 31.2149 65.9991 25.0254 61.4973C19.3135 57.3356 11.2475 50.5498 5.29934 41.82C4.42778 40.5451 3.6426 39.2132 2.94906 37.8333C2.80627 37.5474 2.7389 37.2298 2.75334 36.9106C2.76778 36.5914 2.86355 36.2811 3.03157 36.0093C3.19953 35.7373 3.43426 35.5127 3.71346 35.3569C3.99265 35.2011 4.30704 35.1193 4.62676 35.1192H16.6882L19.7448 30.7437C19.9291 30.4795 20.1783 30.2672 20.4684 30.1273C20.7586 29.9874 21.0799 29.9246 21.4013 29.945C21.7228 29.9653 22.0336 30.0681 22.3038 30.2435C22.574 30.4189 22.7944 30.6609 22.9439 30.9462L26.6119 37.947L32.7826 24.733C32.948 24.3769 33.2211 24.0817 33.5632 23.8891C33.9054 23.6965 34.2994 23.6161 34.6896 23.6593C35.0799 23.7026 35.4467 23.8672 35.7384 24.13C36.0302 24.3928 36.232 24.7406 36.3155 25.1243L40.166 42.6513L45.5966 31.025C45.7444 30.7082 45.9778 30.439 46.2704 30.2479C46.5631 30.0567 46.9033 29.9511 47.2528 29.9431C47.6022 29.935 47.947 30.0248 48.2481 30.2023C48.5492 30.3797 48.7948 30.6378 48.957 30.9475L52.9512 38.5734L54.8002 35.923C54.9731 35.6756 55.2031 35.4735 55.4709 35.334C55.7386 35.1945 56.036 35.1216 56.3379 35.1217H68.1943C71.7685 27.157 70.6571 19.2261 65.1352 13.7304C58.8257 7.44843 48.5595 7.44843 42.2487 13.7304C41.1786 14.7956 39.8309 16.0569 38.4045 17.3934L38.2857 17.5034C37.9383 17.8286 37.4802 18.0095 37.0043 18.0095C36.5285 18.0095 36.0704 17.8286 35.7229 17.5034L35.5979 17.3871C34.1715 16.0457 32.8263 14.7956 31.7575 13.7267C25.448 7.44593 15.1805 7.44593 8.87101 13.7267C4.69552 17.8822 2.99532 23.5053 4.06795 29.5573C4.15525 30.0468 4.04454 30.551 3.76017 30.9589C3.47579 31.3669 3.04104 31.6451 2.55152 31.7326C2.30903 31.7758 2.06041 31.7708 1.81985 31.7179C1.57928 31.665 1.3515 31.5653 1.1495 31.4243C0.947497 31.2834 0.77524 31.104 0.642567 30.8965C0.509893 30.689 0.419401 30.4574 0.376259 30.2149C-0.267567 26.6032 -0.0837952 23.1015 0.921324 19.8074C1.93551 16.4992 3.75813 13.4958 6.22445 11.0689C13.9941 3.33545 26.6344 3.33545 34.404 11.0689C35.1429 11.8052 36.0367 12.654 37.0018 13.5617C37.967 12.654 38.8608 11.8114 39.6009 11.0689C47.3693 3.33545 60.0108 3.33545 67.7792 11.0689C71.1174 14.3556 73.2496 18.672 73.8312 23.3203C74.42 28.0034 73.4562 33.0202 71.0546 37.8308C70.8952 38.1498 70.6481 38.4168 70.3423 38.6003C70.0365 38.7839 69.6847 38.8765 69.3282 38.8671H57.318L54.2601 43.2427C54.0767 43.5078 53.828 43.7212 53.538 43.8622C53.248 44.0032 52.9266 44.067 52.6047 44.0475C52.2829 44.028 51.9715 43.9259 51.7007 43.751C51.4298 43.576 51.2086 43.3342 51.0585 43.0489L47.3906 36.0481L41.2198 49.2559C41.0537 49.6105 40.7806 49.9042 40.439 50.0958C40.0974 50.2874 39.7044 50.3672 39.3151 50.324C38.9259 50.2809 38.5599 50.1169 38.2685 49.8552C37.9772 49.5934 37.7751 49.247 37.6907 48.8646L33.8402 31.3375L28.4096 42.9639C28.2617 43.2803 28.0283 43.5492 27.7358 43.7401C27.4433 43.931 27.1033 44.0365 26.754 44.0445C26.4048 44.0526 26.0603 43.9629 25.7593 43.7857C25.4583 43.6085 25.2128 43.3507 25.0504 43.0414L21.0562 35.4155L19.2047 38.0646C19.032 38.3119 18.8021 38.5138 18.5346 38.6533C18.2672 38.7928 17.97 38.8658 17.6683 38.8659H7.84589C8.02466 39.1472 8.20969 39.426 8.39846 39.7035C14.0279 47.9645 21.7175 54.4415 27.1769 58.4257C30.3195 60.7265 33.6002 62.8324 37.0006 64.7315C40.4272 62.84 53.4838 55.1728 62.9299 43.3314C63.0814 43.133 63.2709 42.9668 63.4874 42.8426C63.7039 42.7184 63.943 42.6386 64.1908 42.608C64.4385 42.5774 64.6899 42.5966 64.9301 42.6644C65.1703 42.7323 65.3946 42.8474 65.5897 43.003C65.7849 43.1586 65.947 43.3516 66.0666 43.5707C66.1862 43.7899 66.2608 44.0306 66.2861 44.279C66.3115 44.5273 66.2869 44.7782 66.214 45.0169C66.1411 45.2556 66.0213 45.4774 65.8615 45.6692C59.8833 53.1701 52.5974 58.9745 47.5381 62.5287C42.0562 66.3792 38.022 68.4456 37.8519 68.5294C37.5884 68.6625 37.2971 68.7314 37.0018 68.7307Z" fill="#742B8F"/>
</svg>
