<svg width="74" height="74" viewBox="0 0 74 74" fill="none" xmlns="http://www.w3.org/2000/svg">
<path d="M28.0708 29.3616C27.9276 29.3616 27.7858 29.3898 27.6535 29.4447C27.5212 29.4995 27.401 29.5799 27.2997 29.6813C27.1985 29.7826 27.1183 29.9029 27.0636 30.0353C27.0089 30.1677 26.9809 30.3096 26.9811 30.4528V32.6453C26.9757 32.7919 27 32.938 27.0524 33.0749C27.1048 33.2119 27.1843 33.3369 27.286 33.4425C27.3878 33.548 27.5099 33.632 27.6448 33.6893C27.7798 33.7467 27.9249 33.7762 28.0716 33.7762C28.2182 33.7762 28.3633 33.7467 28.4983 33.6893C28.6333 33.632 28.7553 33.548 28.8571 33.4425C28.9589 33.3369 29.0383 33.2119 29.0907 33.0749C29.1431 32.938 29.1674 32.7919 29.162 32.6453V30.4528C29.162 30.1634 29.0471 29.8858 28.8424 29.6812C28.6378 29.4765 28.3602 29.3616 28.0708 29.3616Z" fill="#742B8F"/>
<path d="M37 29.3616C36.8568 29.3616 36.715 29.3898 36.5827 29.4447C36.4504 29.4995 36.3302 29.5799 36.2289 29.6813C36.1277 29.7826 36.0475 29.9029 35.9928 30.0353C35.9381 30.1677 35.9101 30.3096 35.9103 30.4528V32.6453C35.9049 32.7919 35.9292 32.938 35.9816 33.0749C36.034 33.2119 36.1135 33.3369 36.2152 33.4425C36.317 33.548 36.439 33.632 36.574 33.6893C36.709 33.7467 36.8541 33.7762 37.0008 33.7762C37.1474 33.7762 37.2925 33.7467 37.4275 33.6893C37.5625 33.632 37.6845 33.548 37.7863 33.4425C37.8881 33.3369 37.9675 33.2119 38.0199 33.0749C38.0723 32.938 38.0966 32.7919 38.0912 32.6453V30.4528C38.0912 30.1634 37.9763 29.8858 37.7716 29.6812C37.567 29.4765 37.2894 29.3616 37 29.3616Z" fill="#742B8F"/>
<path d="M45.9348 33.7365C46.2242 33.7365 46.5018 33.6216 46.7064 33.4169C46.9111 33.2123 47.0261 32.9347 47.0261 32.6453V30.4528C47.0261 30.1634 46.9111 29.8858 46.7064 29.6812C46.5018 29.4765 46.2242 29.3616 45.9348 29.3616C45.6454 29.3616 45.3679 29.4765 45.1632 29.6812C44.9586 29.8858 44.8436 30.1634 44.8436 30.4528V32.6453C44.8436 32.9347 44.9586 33.2123 45.1632 33.4169C45.3679 33.6216 45.6454 33.7365 45.9348 33.7365Z" fill="#742B8F"/>
<path d="M28.0708 39.0234C27.9276 39.0234 27.7858 39.0517 27.6535 39.1065C27.5212 39.1614 27.401 39.2418 27.2997 39.3431C27.1985 39.4445 27.1183 39.5648 27.0636 39.6972C27.0089 39.8296 26.9809 39.9714 26.9811 40.1146V42.3072C26.9757 42.4537 27 42.5999 27.0524 42.7368C27.1048 42.8738 27.1843 42.9988 27.286 43.1043C27.3878 43.2099 27.5099 43.2939 27.6448 43.3512C27.7798 43.4086 27.9249 43.4381 28.0716 43.4381C28.2182 43.4381 28.3633 43.4086 28.4983 43.3512C28.6333 43.2939 28.7553 43.2099 28.8571 43.1043C28.9589 42.9988 29.0383 42.8738 29.0907 42.7368C29.1431 42.5999 29.1674 42.4537 29.162 42.3072V40.1089C29.1605 39.8205 29.0449 39.5444 28.8404 39.341C28.6359 39.1376 28.3592 39.0234 28.0708 39.0234Z" fill="#742B8F"/>
<path d="M45.9348 43.3928C46.2242 43.3928 46.5018 43.2778 46.7064 43.0732C46.9111 42.8685 47.0261 42.591 47.0261 42.3016V40.109C47.0261 39.8196 46.9111 39.5421 46.7064 39.3374C46.5018 39.1328 46.2242 39.0178 45.9348 39.0178C45.6454 39.0178 45.3679 39.1328 45.1632 39.3374C44.9586 39.5421 44.8436 39.8196 44.8436 40.109V42.3016C44.8436 42.591 44.9586 42.8685 45.1632 43.0732C45.3679 43.2778 45.6454 43.3928 45.9348 43.3928Z" fill="#742B8F"/>
<path d="M15.2582 39.0234C14.9693 39.0227 14.6918 39.1365 14.4867 39.34C14.2816 39.5435 14.1656 39.82 14.1641 40.1089V42.3014C14.1641 42.5908 14.279 42.8684 14.4837 43.073C14.6883 43.2777 14.9659 43.3926 15.2553 43.3926C15.5447 43.3926 15.8222 43.2777 16.0269 43.073C16.2315 42.8684 16.3465 42.5908 16.3465 42.3014V40.1089C16.345 39.821 16.2297 39.5453 16.0259 39.342C15.822 39.1387 15.5461 39.0242 15.2582 39.0234Z" fill="#742B8F"/>
<path d="M58.7492 43.3928C59.0386 43.3928 59.3161 43.2778 59.5208 43.0732C59.7254 42.8685 59.8404 42.591 59.8404 42.3016V40.109C59.8404 39.8196 59.7254 39.5421 59.5208 39.3374C59.3161 39.1328 59.0386 39.0178 58.7492 39.0178C58.4598 39.0178 58.1822 39.1328 57.9776 39.3374C57.7729 39.5421 57.658 39.8196 57.658 40.109V42.3016C57.658 42.4449 57.6862 42.5868 57.741 42.7192C57.7959 42.8516 57.8762 42.9718 57.9776 43.0732C58.0789 43.1745 58.1992 43.2549 58.3316 43.3097C58.464 43.3646 58.6059 43.3928 58.7492 43.3928Z" fill="#742B8F"/>
<path d="M28.071 48.9268C27.9278 48.9266 27.786 48.9546 27.6537 49.0093C27.5214 49.064 27.4012 49.1443 27.3 49.2455C27.1987 49.3468 27.1185 49.467 27.0638 49.5993C27.0091 49.7316 26.981 49.8734 26.9812 50.0165V52.212C26.9915 52.4943 27.1109 52.7617 27.3143 52.9578C27.5176 53.1539 27.7892 53.2635 28.0717 53.2635C28.3542 53.2635 28.6257 53.1539 28.8291 52.9578C29.0325 52.7617 29.1519 52.4943 29.1622 52.212V50.0165C29.1622 49.8733 29.1339 49.7315 29.0791 49.5992C29.0242 49.4668 28.9438 49.3466 28.8425 49.2454C28.7411 49.1442 28.6208 49.064 28.4884 49.0093C28.3561 48.9546 28.2142 48.9266 28.071 48.9268Z" fill="#742B8F"/>
<path d="M36.9999 48.9268C36.8568 48.9266 36.715 48.9546 36.5827 49.0093C36.4504 49.064 36.3301 49.1443 36.2289 49.2455C36.1277 49.3468 36.0474 49.467 35.9927 49.5993C35.938 49.7316 35.91 49.8734 35.9102 50.0165V52.212C35.9204 52.4943 36.0398 52.7617 36.2432 52.9578C36.4466 53.1539 36.7181 53.2635 37.0006 53.2635C37.2832 53.2635 37.5547 53.1539 37.7581 52.9578C37.9615 52.7617 38.0809 52.4943 38.0911 52.212V50.0165C38.0911 49.8733 38.0629 49.7315 38.008 49.5992C37.9532 49.4668 37.8728 49.3466 37.7714 49.2454C37.6701 49.1442 37.5498 49.064 37.4174 49.0093C37.285 48.9546 37.1432 48.9266 36.9999 48.9268Z" fill="#742B8F"/>
<path d="M45.9348 53.3017C46.0781 53.3019 46.2199 53.2738 46.3523 53.2192C46.4847 53.1645 46.605 53.0842 46.7064 52.983C46.8077 52.8818 46.8881 52.7616 46.943 52.6293C46.9978 52.497 47.0261 52.3552 47.0261 52.2119V50.0165C47.0261 49.7271 46.9111 49.4495 46.7064 49.2449C46.5018 49.0403 46.2242 48.9253 45.9348 48.9253C45.6454 48.9253 45.3679 49.0403 45.1632 49.2449C44.9586 49.4495 44.8436 49.7271 44.8436 50.0165V52.2119C44.8436 52.3552 44.8719 52.497 44.9267 52.6293C44.9816 52.7616 45.062 52.8818 45.1633 52.983C45.2647 53.0842 45.385 53.1645 45.5174 53.2192C45.6497 53.2738 45.7916 53.3019 45.9348 53.3017Z" fill="#742B8F"/>
<path d="M15.2582 48.9268C15.1147 48.9262 14.9725 48.954 14.8398 49.0085C14.7071 49.063 14.5864 49.1432 14.4848 49.2444C14.3831 49.3457 14.3025 49.466 14.2474 49.5985C14.1924 49.731 14.1641 49.8731 14.1641 50.0165V52.212C14.1641 52.5014 14.279 52.7789 14.4837 52.9836C14.6883 53.1882 14.9659 53.3032 15.2553 53.3032C15.5447 53.3032 15.8222 53.1882 16.0269 52.9836C16.2315 52.7789 16.3465 52.5014 16.3465 52.212V50.0165C16.3465 49.7278 16.2319 49.4508 16.0278 49.2465C15.8238 49.0421 15.5469 48.9271 15.2582 48.9268Z" fill="#742B8F"/>
<path d="M58.7492 53.3017C58.8924 53.3019 59.0343 53.2738 59.1666 53.2192C59.299 53.1645 59.4193 53.0842 59.5207 52.983C59.622 52.8818 59.7024 52.7616 59.7573 52.6293C59.8121 52.497 59.8404 52.3552 59.8404 52.2119V50.0165C59.8404 49.7271 59.7254 49.4495 59.5208 49.2449C59.3161 49.0403 59.0386 48.9253 58.7492 48.9253C58.4598 48.9253 58.1822 49.0403 57.9776 49.2449C57.7729 49.4495 57.658 49.7271 57.658 50.0165V52.2119C57.658 52.3552 57.6862 52.497 57.7411 52.6293C57.7959 52.7616 57.8763 52.8818 57.9777 52.983C58.079 53.0842 58.1993 53.1645 58.3317 53.2192C58.4641 53.2738 58.6059 53.3019 58.7492 53.3017Z" fill="#742B8F"/>
<path d="M68.4978 66.1953H65.7734V34.7034C65.7735 34.5601 65.7454 34.4181 65.6907 34.2856C65.6359 34.1531 65.5555 34.0327 65.4542 33.9314C65.3528 33.83 65.2324 33.7496 65.1 33.6949C64.9675 33.6401 64.8255 33.612 64.6821 33.6122H53.9102V23.3678C53.9104 23.2246 53.8824 23.0827 53.8277 22.9503C53.773 22.818 53.6928 22.6977 53.5916 22.5963C53.4903 22.495 53.3701 22.4146 53.2378 22.3597C53.1055 22.3048 52.9637 22.2766 52.8205 22.2766H21.1912C21.048 22.2766 20.9062 22.3048 20.7739 22.3597C20.6416 22.4146 20.5214 22.495 20.4202 22.5963C20.3189 22.6977 20.2387 22.818 20.184 22.9503C20.1293 23.0827 20.1013 23.2246 20.1015 23.3678V33.6122H9.32523C9.03646 33.613 8.75979 33.7283 8.55601 33.9329C8.35222 34.1375 8.23797 34.4146 8.23835 34.7034V66.1953H5.50238C5.35583 66.19 5.20971 66.2142 5.07275 66.2666C4.93579 66.319 4.8108 66.3985 4.70524 66.5003C4.59967 66.6021 4.51571 66.7241 4.45836 66.8591C4.40102 66.994 4.37146 67.1392 4.37146 67.2858C4.37146 67.4324 4.40102 67.5776 4.45836 67.7126C4.51571 67.8475 4.59967 67.9695 4.70524 68.0713C4.8108 68.1731 4.93579 68.2526 5.07275 68.305C5.20971 68.3574 5.35583 68.3816 5.50238 68.3763H31.398C31.5413 68.3765 31.6832 68.3484 31.8156 68.2936C31.948 68.2388 32.0683 68.1584 32.1696 68.057C32.2708 67.9556 32.351 67.8353 32.4057 67.7028C32.4603 67.5703 32.4882 67.4284 32.4878 67.2851V59.4226H41.5181V67.2851C41.5179 67.4284 41.546 67.5704 41.6008 67.7029C41.6556 67.8354 41.7359 67.9557 41.8373 68.0571C41.9387 68.1585 42.059 68.2388 42.1915 68.2936C42.324 68.3484 42.466 68.3765 42.6093 68.3763H68.4978C68.6443 68.3816 68.7904 68.3574 68.9274 68.305C69.0644 68.2526 69.1893 68.1731 69.2949 68.0713C69.4005 67.9695 69.4844 67.8475 69.5418 67.7126C69.5991 67.5776 69.6287 67.4324 69.6287 67.2858C69.6287 67.1392 69.5991 66.994 69.5418 66.8591C69.4844 66.7241 69.4005 66.6021 69.2949 66.5003C69.1893 66.3985 69.0644 66.319 68.9274 66.2666C68.7904 66.2142 68.6443 66.19 68.4978 66.1953ZM63.5938 35.7932V66.1953H53.9102V35.7932H63.5938ZM10.4164 35.7932H20.1V66.1953H10.4164V35.7932ZM42.6093 57.2431H31.398C31.1086 57.2431 30.8311 57.358 30.6264 57.5627C30.4218 57.7673 30.3068 58.0449 30.3068 58.3343V66.1953H22.2825V24.4576H51.7249V66.1953H43.6991V58.3343C43.6993 58.191 43.6712 58.0492 43.6166 57.9168C43.5619 57.7844 43.4816 57.6641 43.3804 57.5627C43.2792 57.4614 43.159 57.381 43.0267 57.3261C42.8944 57.2713 42.7526 57.2431 42.6093 57.2431Z" fill="#742B8F"/>
<path d="M17.2194 13.9586L16.6413 17.2829C16.606 17.4835 16.6276 17.69 16.7037 17.879C16.7797 18.0681 16.9071 18.232 17.0715 18.3523C17.2359 18.4727 17.4307 18.5446 17.6339 18.5599C17.837 18.5752 18.0404 18.5334 18.221 18.4391L21.2201 16.8738L24.209 18.4565C24.3889 18.5525 24.5922 18.5962 24.7957 18.5826C24.9993 18.569 25.1949 18.4986 25.3605 18.3794C25.526 18.2602 25.6549 18.097 25.7323 17.9083C25.8098 17.7196 25.8328 17.5129 25.7988 17.3118L25.2351 13.9774L27.6647 11.6216C27.811 11.48 27.9148 11.3003 27.9642 11.1028C28.0136 10.9053 28.0067 10.6979 27.9443 10.5041C27.8819 10.3103 27.7664 10.1379 27.6109 10.0063C27.4555 9.87484 27.2663 9.7895 27.0649 9.76001L23.7204 9.26426L22.2332 6.22911C22.1424 6.04527 22.0016 5.89072 21.827 5.78311C21.6525 5.67551 21.4511 5.6192 21.2461 5.62063C21.043 5.6205 20.8439 5.67712 20.6712 5.78413C20.4986 5.89113 20.3593 6.04426 20.269 6.22622L18.7645 9.24981L15.4157 9.72677C15.214 9.7551 15.0243 9.8394 14.868 9.97009C14.7118 10.1008 14.5954 10.2726 14.5319 10.4662C14.4684 10.6597 14.4604 10.8671 14.5088 11.065C14.5572 11.2628 14.6601 11.4431 14.8058 11.5854L17.2194 13.9586ZM19.6389 11.334C19.8139 11.3087 19.9802 11.2415 20.1237 11.138C20.2671 11.0346 20.3834 10.898 20.4627 10.7399L21.2461 9.17755L22.0121 10.7443C22.0902 10.903 22.2058 11.0404 22.3488 11.1446C22.4918 11.2489 22.658 11.3168 22.833 11.3426L24.5602 11.5999L23.3056 12.8154C23.1772 12.9376 23.0805 13.0892 23.0238 13.2572C22.9672 13.4252 22.9523 13.6044 22.9804 13.7794L23.2695 15.5008L21.7274 14.6827C21.5699 14.6002 21.3949 14.5571 21.2172 14.557C21.0412 14.5573 20.8678 14.5994 20.7113 14.6799L19.1648 15.4878L19.464 13.7679C19.4946 13.5938 19.4823 13.4149 19.4281 13.2467C19.374 13.0784 19.2796 12.9259 19.1533 12.8024L17.9074 11.5797L19.6389 11.334Z" fill="#742B8F"/>
<path d="M32.9127 13.9589L32.3346 17.2831C32.2995 17.4836 32.3212 17.6898 32.3971 17.8786C32.4731 18.0674 32.6004 18.2312 32.7646 18.3515C32.9287 18.4717 33.1232 18.5437 33.3262 18.5592C33.5291 18.5748 33.7323 18.5332 33.9128 18.4394L36.9119 16.8741L39.8907 18.4625C40.0702 18.5579 40.273 18.6011 40.4758 18.587C40.6787 18.573 40.8735 18.5023 41.0382 18.383C41.2024 18.2633 41.3299 18.1002 41.4065 17.9121C41.4831 17.7239 41.5057 17.5181 41.4718 17.3178L40.911 13.9835L43.3406 11.6276C43.487 11.4861 43.5907 11.3063 43.6401 11.1088C43.6896 10.9113 43.6827 10.7039 43.6202 10.5101C43.5578 10.3163 43.4423 10.1439 43.2869 10.0124C43.1314 9.88087 42.9423 9.79554 42.7408 9.76604L39.3949 9.2703L37.9077 6.23515C37.818 6.05232 37.679 5.89819 37.5063 5.79017C37.3337 5.68214 37.1343 5.62451 36.9307 5.62378C36.7276 5.62381 36.5285 5.68051 36.3559 5.78749C36.1833 5.89448 36.044 6.04751 35.9536 6.22936L34.4548 9.25007L31.1075 9.72702C30.9048 9.75451 30.7139 9.8385 30.5567 9.96938C30.3995 10.1003 30.2823 10.2727 30.2185 10.4671C30.1547 10.6615 30.1469 10.8699 30.196 11.0684C30.2451 11.267 30.3491 11.4478 30.4961 11.59L32.9127 13.9589ZM35.3292 11.3342C35.5044 11.3093 35.6709 11.2422 35.8144 11.1387C35.9579 11.0353 36.0741 10.8985 36.1531 10.7402L36.9307 9.17636L37.6981 10.7445C37.7757 10.9034 37.8909 11.0409 38.0338 11.1452C38.1766 11.2495 38.3426 11.3173 38.5176 11.3429L40.2448 11.6001L38.9902 12.8157C38.8633 12.9387 38.7682 13.0907 38.7131 13.2586C38.658 13.4266 38.6444 13.6054 38.6737 13.7797L38.9628 15.501L37.4206 14.683C37.2632 14.6005 37.0881 14.5573 36.9104 14.5573C36.7345 14.5577 36.5611 14.5998 36.4046 14.6801L34.8581 15.4895L35.1587 13.7681C35.1887 13.5939 35.176 13.4151 35.1217 13.2469C35.0673 13.0787 34.9729 12.9263 34.8465 12.8026L33.6007 11.5799L35.3292 11.3342Z" fill="#742B8F"/>
<path d="M48.6044 13.9588L48.0263 17.283C47.991 17.4837 48.0126 17.6902 48.0886 17.8792C48.1647 18.0682 48.2921 18.2322 48.4565 18.3525C48.6209 18.4728 48.8157 18.5447 49.0189 18.5601C49.222 18.5754 49.4254 18.5336 49.606 18.4393L52.6036 16.874L55.5925 18.4566C55.7724 18.5527 55.9757 18.5964 56.1793 18.5828C56.3828 18.5692 56.5785 18.4988 56.744 18.3796C56.9096 18.2604 57.0384 18.0972 57.1159 17.9085C57.1933 17.7197 57.2164 17.5131 57.1823 17.3119L56.6201 13.9776L59.0511 11.6217C59.1975 11.4802 59.3012 11.3005 59.3506 11.103C59.4001 10.9054 59.3932 10.698 59.3307 10.5043C59.2683 10.3105 59.1528 10.138 58.9974 10.0065C58.8419 9.87502 58.6528 9.78968 58.4513 9.76019L55.1054 9.26444L53.6182 6.22929C53.5289 6.04646 53.3901 5.8923 53.2177 5.78425C53.0453 5.6762 52.8461 5.61858 52.6426 5.61792C52.4397 5.61789 52.2408 5.67457 52.0684 5.78158C51.8961 5.88859 51.757 6.04166 51.667 6.22351L50.1523 9.24999L46.8035 9.72694C46.6021 9.75579 46.4128 9.84037 46.257 9.97112C46.1011 10.1019 45.9849 10.2736 45.9215 10.4669C45.858 10.6602 45.8499 10.8674 45.898 11.0651C45.9461 11.2628 46.0485 11.4431 46.1936 11.5856L48.6044 13.9588ZM51.0195 11.3341C51.1944 11.309 51.3606 11.2418 51.5038 11.1383C51.6471 11.0349 51.7631 10.8982 51.8419 10.7401L52.6195 9.17628L53.3869 10.7444C53.4648 10.9032 53.58 11.0406 53.7228 11.1448C53.8656 11.2491 54.0315 11.317 54.2064 11.3428L55.9336 11.5986L54.679 12.8156C54.5519 12.9384 54.4565 13.0904 54.4014 13.2584C54.3462 13.4264 54.3329 13.6053 54.3625 13.7796L54.6516 15.501L53.1109 14.6829C52.9546 14.6017 52.7811 14.5593 52.605 14.5593C52.4289 14.5593 52.2554 14.6017 52.0992 14.6829L50.5512 15.4909L50.8519 13.7709C50.8818 13.5969 50.8692 13.4181 50.8151 13.25C50.761 13.0819 50.667 12.9294 50.5411 12.8055L49.2938 11.5827L51.0195 11.3341Z" fill="#742B8F"/>
</svg>
